<mxfile host="app.diagrams.net" modified="2023-09-01T18:18:55.742Z" agent="Mozilla/5.0 (Windows NT 10.0; Win64; x64) AppleWebKit/537.36 (KHTML, like Gecko) Chrome/116.0.0.0 Safari/537.36" etag="xKdSD_bLHDkf0rk6adjc" version="21.7.2" type="device">
  <diagram name="Страница — 1" id="kBq3xyXn76sdYz30otKT">
    <mxGraphModel dx="1434" dy="758" grid="1" gridSize="10" guides="1" tooltips="1" connect="1" arrows="1" fold="1" page="1" pageScale="1" pageWidth="827" pageHeight="1169" math="0" shadow="0">
      <root>
        <mxCell id="0" />
        <mxCell id="1" parent="0" />
        <mxCell id="Df3GkanbEGuxaOIv3N8X-46" value="" style="edgeStyle=none;rounded=0;sketch=1;hachureGap=4;jiggle=2;curveFitting=1;orthogonalLoop=1;jettySize=auto;html=1;fontFamily=Architects Daughter;fontSource=https%3A%2F%2Ffonts.googleapis.com%2Fcss%3Ffamily%3DArchitects%2BDaughter;fontSize=16;startArrow=block;startFill=1;endArrow=none;endFill=0;" edge="1" parent="1" source="Df3GkanbEGuxaOIv3N8X-1">
          <mxGeometry relative="1" as="geometry">
            <mxPoint x="290" y="165" as="targetPoint" />
          </mxGeometry>
        </mxCell>
        <mxCell id="Df3GkanbEGuxaOIv3N8X-47" value="" style="edgeStyle=none;rounded=0;sketch=1;hachureGap=4;jiggle=2;curveFitting=1;orthogonalLoop=1;jettySize=auto;html=1;fontFamily=Architects Daughter;fontSource=https%3A%2F%2Ffonts.googleapis.com%2Fcss%3Ffamily%3DArchitects%2BDaughter;fontSize=16;endArrow=none;endFill=0;" edge="1" parent="1" source="Df3GkanbEGuxaOIv3N8X-1">
          <mxGeometry relative="1" as="geometry">
            <mxPoint x="40" y="165" as="targetPoint" />
          </mxGeometry>
        </mxCell>
        <mxCell id="Df3GkanbEGuxaOIv3N8X-1" value="" style="shape=providedRequiredInterface;html=1;verticalLabelPosition=bottom;sketch=0;hachureGap=4;jiggle=2;curveFitting=1;fontFamily=Architects Daughter;fontSource=https%3A%2F%2Ffonts.googleapis.com%2Fcss%3Ffamily%3DArchitects%2BDaughter;fontSize=20;direction=west;" vertex="1" parent="1">
          <mxGeometry x="120" y="120" width="90" height="90" as="geometry" />
        </mxCell>
        <mxCell id="Df3GkanbEGuxaOIv3N8X-2" value="" style="shape=requiredInterface;html=1;verticalLabelPosition=bottom;sketch=0;hachureGap=4;jiggle=2;curveFitting=1;fontFamily=Architects Daughter;fontSource=https%3A%2F%2Ffonts.googleapis.com%2Fcss%3Ffamily%3DArchitects%2BDaughter;fontSize=20;direction=west;" vertex="1" parent="1">
          <mxGeometry x="137.5" y="270" width="55" height="90" as="geometry" />
        </mxCell>
        <mxCell id="Df3GkanbEGuxaOIv3N8X-8" value="" style="ellipse;whiteSpace=wrap;html=1;align=center;aspect=fixed;fillColor=none;strokeColor=none;resizable=0;perimeter=centerPerimeter;rotatable=0;allowArrows=0;points=[];outlineConnect=1;sketch=1;hachureGap=4;jiggle=2;curveFitting=1;fontFamily=Architects Daughter;fontSource=https%3A%2F%2Ffonts.googleapis.com%2Fcss%3Ffamily%3DArchitects%2BDaughter;fontSize=20;" vertex="1" parent="1">
          <mxGeometry x="135" y="460" width="10" height="10" as="geometry" />
        </mxCell>
        <mxCell id="Df3GkanbEGuxaOIv3N8X-10" value="«Annotation»&lt;br&gt;&lt;b&gt;Computer&lt;/b&gt;" style="html=1;dropTarget=0;whiteSpace=wrap;sketch=1;hachureGap=4;jiggle=2;curveFitting=1;fontFamily=Architects Daughter;fontSource=https%3A%2F%2Ffonts.googleapis.com%2Fcss%3Ffamily%3DArchitects%2BDaughter;fontSize=20;" vertex="1" parent="1">
          <mxGeometry x="80" y="640" width="680" height="480" as="geometry" />
        </mxCell>
        <mxCell id="Df3GkanbEGuxaOIv3N8X-11" value="" style="shape=module;jettyWidth=8;jettyHeight=4;sketch=1;hachureGap=4;jiggle=2;curveFitting=1;fontFamily=Architects Daughter;fontSource=https%3A%2F%2Ffonts.googleapis.com%2Fcss%3Ffamily%3DArchitects%2BDaughter;fontSize=20;" vertex="1" parent="Df3GkanbEGuxaOIv3N8X-10">
          <mxGeometry x="1" width="20" height="20" relative="1" as="geometry">
            <mxPoint x="-27" y="7" as="offset" />
          </mxGeometry>
        </mxCell>
        <mxCell id="Df3GkanbEGuxaOIv3N8X-45" style="edgeStyle=orthogonalEdgeStyle;rounded=0;sketch=1;hachureGap=4;jiggle=2;curveFitting=1;orthogonalLoop=1;jettySize=auto;html=1;entryX=0.559;entryY=0.333;entryDx=0;entryDy=0;entryPerimeter=0;fontFamily=Architects Daughter;fontSource=https%3A%2F%2Ffonts.googleapis.com%2Fcss%3Ffamily%3DArchitects%2BDaughter;fontSize=16;" edge="1" parent="1" source="Df3GkanbEGuxaOIv3N8X-9" target="Df3GkanbEGuxaOIv3N8X-41">
          <mxGeometry relative="1" as="geometry" />
        </mxCell>
        <mxCell id="Df3GkanbEGuxaOIv3N8X-9" value="Mouse" style="shape=module;align=left;spacingLeft=20;align=center;verticalAlign=top;whiteSpace=wrap;html=1;sketch=1;hachureGap=4;jiggle=2;curveFitting=1;fontFamily=Architects Daughter;fontSource=https%3A%2F%2Ffonts.googleapis.com%2Fcss%3Ffamily%3DArchitects%2BDaughter;fontSize=20;" vertex="1" parent="1">
          <mxGeometry x="115" y="810" width="145" height="60" as="geometry" />
        </mxCell>
        <mxCell id="Df3GkanbEGuxaOIv3N8X-12" value="Monitor" style="shape=module;align=left;spacingLeft=20;align=center;verticalAlign=top;whiteSpace=wrap;html=1;sketch=1;hachureGap=4;jiggle=2;curveFitting=1;fontFamily=Architects Daughter;fontSource=https%3A%2F%2Ffonts.googleapis.com%2Fcss%3Ffamily%3DArchitects%2BDaughter;fontSize=20;" vertex="1" parent="1">
          <mxGeometry x="115" y="680" width="145" height="60" as="geometry" />
        </mxCell>
        <mxCell id="Df3GkanbEGuxaOIv3N8X-43" style="edgeStyle=orthogonalEdgeStyle;rounded=0;sketch=1;hachureGap=4;jiggle=2;curveFitting=1;orthogonalLoop=1;jettySize=auto;html=1;entryX=0.382;entryY=0.333;entryDx=0;entryDy=0;entryPerimeter=0;fontFamily=Architects Daughter;fontSource=https%3A%2F%2Ffonts.googleapis.com%2Fcss%3Ffamily%3DArchitects%2BDaughter;fontSize=16;" edge="1" parent="1" source="Df3GkanbEGuxaOIv3N8X-13" target="Df3GkanbEGuxaOIv3N8X-41">
          <mxGeometry relative="1" as="geometry" />
        </mxCell>
        <mxCell id="Df3GkanbEGuxaOIv3N8X-13" value="USB&lt;br&gt;HUB" style="shape=module;align=left;spacingLeft=20;align=center;verticalAlign=top;whiteSpace=wrap;html=1;sketch=1;hachureGap=4;jiggle=2;curveFitting=1;fontFamily=Architects Daughter;fontSource=https%3A%2F%2Ffonts.googleapis.com%2Fcss%3Ffamily%3DArchitects%2BDaughter;fontSize=20;" vertex="1" parent="1">
          <mxGeometry x="115" y="960" width="145" height="60" as="geometry" />
        </mxCell>
        <mxCell id="Df3GkanbEGuxaOIv3N8X-14" value="System&lt;br&gt;Unit" style="shape=module;align=left;spacingLeft=20;align=center;verticalAlign=top;whiteSpace=wrap;html=1;sketch=1;hachureGap=4;jiggle=2;curveFitting=1;fontFamily=Architects Daughter;fontSource=https%3A%2F%2Ffonts.googleapis.com%2Fcss%3Ffamily%3DArchitects%2BDaughter;fontSize=20;" vertex="1" parent="1">
          <mxGeometry x="530" y="675" width="145" height="60" as="geometry" />
        </mxCell>
        <mxCell id="Df3GkanbEGuxaOIv3N8X-40" style="edgeStyle=none;rounded=0;sketch=1;hachureGap=4;jiggle=2;curveFitting=1;orthogonalLoop=1;jettySize=auto;html=1;entryX=0;entryY=0.5;entryDx=0;entryDy=0;entryPerimeter=0;fontFamily=Architects Daughter;fontSource=https%3A%2F%2Ffonts.googleapis.com%2Fcss%3Ffamily%3DArchitects%2BDaughter;fontSize=16;" edge="1" parent="1" source="Df3GkanbEGuxaOIv3N8X-15" target="Df3GkanbEGuxaOIv3N8X-38">
          <mxGeometry relative="1" as="geometry" />
        </mxCell>
        <mxCell id="Df3GkanbEGuxaOIv3N8X-15" value="Keyboard" style="shape=module;align=left;spacingLeft=20;align=center;verticalAlign=top;whiteSpace=wrap;html=1;sketch=1;hachureGap=4;jiggle=2;curveFitting=1;fontFamily=Architects Daughter;fontSource=https%3A%2F%2Ffonts.googleapis.com%2Fcss%3Ffamily%3DArchitects%2BDaughter;fontSize=20;" vertex="1" parent="1">
          <mxGeometry x="530" y="810" width="145" height="60" as="geometry" />
        </mxCell>
        <mxCell id="Df3GkanbEGuxaOIv3N8X-16" value="Microphone" style="shape=module;align=left;spacingLeft=20;align=center;verticalAlign=top;whiteSpace=wrap;html=1;sketch=1;hachureGap=4;jiggle=2;curveFitting=1;fontFamily=Architects Daughter;fontSource=https%3A%2F%2Ffonts.googleapis.com%2Fcss%3Ffamily%3DArchitects%2BDaughter;fontSize=20;" vertex="1" parent="1">
          <mxGeometry x="530" y="960" width="145" height="60" as="geometry" />
        </mxCell>
        <mxCell id="Df3GkanbEGuxaOIv3N8X-18" value="" style="ellipse;whiteSpace=wrap;html=1;align=center;aspect=fixed;fillColor=none;strokeColor=none;resizable=0;perimeter=centerPerimeter;rotatable=0;allowArrows=0;points=[];outlineConnect=1;sketch=1;hachureGap=4;jiggle=2;curveFitting=1;fontFamily=Architects Daughter;fontSource=https%3A%2F%2Ffonts.googleapis.com%2Fcss%3Ffamily%3DArchitects%2BDaughter;fontSize=20;" vertex="1" parent="1">
          <mxGeometry x="290" y="840" width="10" height="10" as="geometry" />
        </mxCell>
        <mxCell id="Df3GkanbEGuxaOIv3N8X-21" value="" style="ellipse;whiteSpace=wrap;html=1;align=center;aspect=fixed;fillColor=none;strokeColor=none;resizable=0;perimeter=centerPerimeter;rotatable=0;allowArrows=0;points=[];outlineConnect=1;sketch=1;hachureGap=4;jiggle=2;curveFitting=1;fontFamily=Architects Daughter;fontSource=https%3A%2F%2Ffonts.googleapis.com%2Fcss%3Ffamily%3DArchitects%2BDaughter;fontSize=20;" vertex="1" parent="1">
          <mxGeometry x="300" y="830" width="10" height="10" as="geometry" />
        </mxCell>
        <mxCell id="Df3GkanbEGuxaOIv3N8X-26" value="" style="ellipse;whiteSpace=wrap;html=1;align=center;aspect=fixed;fillColor=none;strokeColor=none;resizable=0;perimeter=centerPerimeter;rotatable=0;allowArrows=0;points=[];outlineConnect=1;sketch=1;hachureGap=4;jiggle=2;curveFitting=1;fontFamily=Architects Daughter;fontSource=https%3A%2F%2Ffonts.googleapis.com%2Fcss%3Ffamily%3DArchitects%2BDaughter;fontSize=20;strokeWidth=3;" vertex="1" parent="1">
          <mxGeometry x="290" y="470" width="10" height="10" as="geometry" />
        </mxCell>
        <mxCell id="Df3GkanbEGuxaOIv3N8X-30" value="" style="ellipse;whiteSpace=wrap;html=1;align=center;aspect=fixed;fillColor=none;strokeColor=none;resizable=0;perimeter=centerPerimeter;rotatable=0;allowArrows=0;points=[];outlineConnect=1;sketch=1;hachureGap=4;jiggle=2;curveFitting=1;fontFamily=Architects Daughter;fontSource=https%3A%2F%2Ffonts.googleapis.com%2Fcss%3Ffamily%3DArchitects%2BDaughter;fontSize=20;" vertex="1" parent="1">
          <mxGeometry x="470" y="705" width="10" height="10" as="geometry" />
        </mxCell>
        <mxCell id="Df3GkanbEGuxaOIv3N8X-32" value="HDMI" style="edgeStyle=none;rounded=0;sketch=1;hachureGap=4;jiggle=2;curveFitting=1;orthogonalLoop=1;jettySize=auto;html=1;entryX=0.076;entryY=0.283;entryDx=0;entryDy=0;entryPerimeter=0;fontFamily=Architects Daughter;fontSource=https%3A%2F%2Ffonts.googleapis.com%2Fcss%3Ffamily%3DArchitects%2BDaughter;fontSize=16;endArrow=none;endFill=0;" edge="1" parent="1" source="Df3GkanbEGuxaOIv3N8X-31" target="Df3GkanbEGuxaOIv3N8X-14">
          <mxGeometry relative="1" as="geometry" />
        </mxCell>
        <mxCell id="Df3GkanbEGuxaOIv3N8X-31" value="" style="shape=providedRequiredInterface;html=1;verticalLabelPosition=bottom;sketch=0;hachureGap=4;jiggle=2;curveFitting=1;fontFamily=Architects Daughter;fontSource=https%3A%2F%2Ffonts.googleapis.com%2Fcss%3Ffamily%3DArchitects%2BDaughter;fontSize=20;" vertex="1" parent="1">
          <mxGeometry x="420" y="675" width="34" height="30" as="geometry" />
        </mxCell>
        <mxCell id="Df3GkanbEGuxaOIv3N8X-34" value="HDMI" style="edgeStyle=none;rounded=0;sketch=1;hachureGap=4;jiggle=2;curveFitting=1;orthogonalLoop=1;jettySize=auto;html=1;entryX=1;entryY=0.25;entryDx=0;entryDy=0;fontFamily=Architects Daughter;fontSource=https%3A%2F%2Ffonts.googleapis.com%2Fcss%3Ffamily%3DArchitects%2BDaughter;fontSize=16;endArrow=none;endFill=0;" edge="1" parent="1" source="Df3GkanbEGuxaOIv3N8X-33" target="Df3GkanbEGuxaOIv3N8X-12">
          <mxGeometry relative="1" as="geometry" />
        </mxCell>
        <mxCell id="Df3GkanbEGuxaOIv3N8X-35" style="edgeStyle=none;rounded=0;sketch=1;hachureGap=4;jiggle=2;curveFitting=1;orthogonalLoop=1;jettySize=auto;html=1;fontFamily=Architects Daughter;fontSource=https%3A%2F%2Ffonts.googleapis.com%2Fcss%3Ffamily%3DArchitects%2BDaughter;fontSize=16;endArrow=none;endFill=0;" edge="1" parent="1" source="Df3GkanbEGuxaOIv3N8X-33" target="Df3GkanbEGuxaOIv3N8X-31">
          <mxGeometry relative="1" as="geometry" />
        </mxCell>
        <mxCell id="Df3GkanbEGuxaOIv3N8X-33" value="" style="shape=providedRequiredInterface;html=1;verticalLabelPosition=bottom;sketch=0;hachureGap=4;jiggle=2;curveFitting=1;fontFamily=Architects Daughter;fontSource=https%3A%2F%2Ffonts.googleapis.com%2Fcss%3Ffamily%3DArchitects%2BDaughter;fontSize=20;direction=west;" vertex="1" parent="1">
          <mxGeometry x="330" y="675" width="34" height="30" as="geometry" />
        </mxCell>
        <mxCell id="Df3GkanbEGuxaOIv3N8X-39" value="PS/2" style="rounded=0;sketch=1;hachureGap=4;jiggle=2;curveFitting=1;orthogonalLoop=1;jettySize=auto;html=1;fontFamily=Architects Daughter;fontSource=https%3A%2F%2Ffonts.googleapis.com%2Fcss%3Ffamily%3DArchitects%2BDaughter;fontSize=16;endArrow=none;endFill=0;" edge="1" parent="1" source="Df3GkanbEGuxaOIv3N8X-38" target="Df3GkanbEGuxaOIv3N8X-14">
          <mxGeometry relative="1" as="geometry" />
        </mxCell>
        <mxCell id="Df3GkanbEGuxaOIv3N8X-38" value="" style="shape=providedRequiredInterface;html=1;verticalLabelPosition=bottom;sketch=0;hachureGap=4;jiggle=2;curveFitting=1;fontFamily=Architects Daughter;fontSource=https%3A%2F%2Ffonts.googleapis.com%2Fcss%3Ffamily%3DArchitects%2BDaughter;fontSize=20;direction=north;" vertex="1" parent="1">
          <mxGeometry x="592.5" y="760" width="20" height="20" as="geometry" />
        </mxCell>
        <mxCell id="Df3GkanbEGuxaOIv3N8X-42" style="edgeStyle=none;rounded=0;sketch=1;hachureGap=4;jiggle=2;curveFitting=1;orthogonalLoop=1;jettySize=auto;html=1;entryX=0;entryY=1;entryDx=10;entryDy=0;entryPerimeter=0;fontFamily=Architects Daughter;fontSource=https%3A%2F%2Ffonts.googleapis.com%2Fcss%3Ffamily%3DArchitects%2BDaughter;fontSize=16;endArrow=none;endFill=0;" edge="1" parent="1" source="Df3GkanbEGuxaOIv3N8X-41" target="Df3GkanbEGuxaOIv3N8X-14">
          <mxGeometry relative="1" as="geometry" />
        </mxCell>
        <mxCell id="Df3GkanbEGuxaOIv3N8X-44" value="USB" style="edgeLabel;html=1;align=center;verticalAlign=middle;resizable=0;points=[];fontSize=20;fontFamily=Architects Daughter;" vertex="1" connectable="0" parent="Df3GkanbEGuxaOIv3N8X-42">
          <mxGeometry x="0.2841" y="-4" relative="1" as="geometry">
            <mxPoint y="1" as="offset" />
          </mxGeometry>
        </mxCell>
        <mxCell id="Df3GkanbEGuxaOIv3N8X-41" value="" style="shape=providedRequiredInterface;html=1;verticalLabelPosition=bottom;sketch=0;hachureGap=4;jiggle=2;curveFitting=1;fontFamily=Architects Daughter;fontSource=https%3A%2F%2Ffonts.googleapis.com%2Fcss%3Ffamily%3DArchitects%2BDaughter;fontSize=20;" vertex="1" parent="1">
          <mxGeometry x="420" y="715" width="34" height="30" as="geometry" />
        </mxCell>
        <mxCell id="Df3GkanbEGuxaOIv3N8X-51" value="Подготовкой данных для интерфейса занимается принимающая сторона" style="text;html=1;strokeColor=none;fillColor=none;align=center;verticalAlign=middle;whiteSpace=wrap;rounded=0;fontSize=20;fontFamily=Architects Daughter;" vertex="1" parent="1">
          <mxGeometry x="310" y="110" width="350" height="110" as="geometry" />
        </mxCell>
        <mxCell id="Df3GkanbEGuxaOIv3N8X-52" value="" style="edgeStyle=none;rounded=0;sketch=1;hachureGap=4;jiggle=2;curveFitting=1;orthogonalLoop=1;jettySize=auto;html=1;fontFamily=Architects Daughter;fontSource=https%3A%2F%2Ffonts.googleapis.com%2Fcss%3Ffamily%3DArchitects%2BDaughter;fontSize=16;endArrow=none;endFill=0;" edge="1" parent="1">
          <mxGeometry relative="1" as="geometry">
            <mxPoint x="57.5" y="314.5" as="targetPoint" />
            <mxPoint x="137.5" y="314.5" as="sourcePoint" />
          </mxGeometry>
        </mxCell>
        <mxCell id="Df3GkanbEGuxaOIv3N8X-53" value="" style="ellipse;whiteSpace=wrap;html=1;sketch=1;hachureGap=4;jiggle=2;curveFitting=1;fontFamily=Architects Daughter;fontSource=https%3A%2F%2Ffonts.googleapis.com%2Fcss%3Ffamily%3DArchitects%2BDaughter;fontSize=20;" vertex="1" parent="1">
          <mxGeometry x="260" y="285" width="80" height="60" as="geometry" />
        </mxCell>
        <mxCell id="Df3GkanbEGuxaOIv3N8X-55" value="" style="edgeStyle=none;rounded=0;sketch=1;hachureGap=4;jiggle=2;curveFitting=1;orthogonalLoop=1;jettySize=auto;html=1;fontFamily=Architects Daughter;fontSource=https%3A%2F%2Ffonts.googleapis.com%2Fcss%3Ffamily%3DArchitects%2BDaughter;fontSize=16;startArrow=block;startFill=1;endArrow=none;endFill=0;entryX=0;entryY=0.5;entryDx=0;entryDy=0;exitX=1;exitY=0.5;exitDx=0;exitDy=0;exitPerimeter=0;" edge="1" parent="1" source="Df3GkanbEGuxaOIv3N8X-2" target="Df3GkanbEGuxaOIv3N8X-53">
          <mxGeometry relative="1" as="geometry">
            <mxPoint x="300" y="175" as="targetPoint" />
            <mxPoint x="220" y="175" as="sourcePoint" />
          </mxGeometry>
        </mxCell>
        <mxCell id="Df3GkanbEGuxaOIv3N8X-56" value="Подготовкой данных для интерфейса занимается отправляющая сторона" style="text;html=1;strokeColor=none;fillColor=none;align=center;verticalAlign=middle;whiteSpace=wrap;rounded=0;fontSize=20;fontFamily=Architects Daughter;" vertex="1" parent="1">
          <mxGeometry x="380" y="250" width="350" height="110" as="geometry" />
        </mxCell>
        <mxCell id="Df3GkanbEGuxaOIv3N8X-57" value="" style="whiteSpace=wrap;html=1;aspect=fixed;sketch=1;hachureGap=4;jiggle=2;curveFitting=1;fontFamily=Architects Daughter;fontSource=https%3A%2F%2Ffonts.googleapis.com%2Fcss%3Ffamily%3DArchitects%2BDaughter;fontSize=20;" vertex="1" parent="1">
          <mxGeometry x="80" y="400" width="80" height="80" as="geometry" />
        </mxCell>
        <mxCell id="Df3GkanbEGuxaOIv3N8X-58" value="" style="shape=requiredInterface;html=1;verticalLabelPosition=bottom;sketch=0;hachureGap=4;jiggle=2;curveFitting=1;fontFamily=Architects Daughter;fontSource=https%3A%2F%2Ffonts.googleapis.com%2Fcss%3Ffamily%3DArchitects%2BDaughter;fontSize=20;direction=west;" vertex="1" parent="1">
          <mxGeometry x="240" y="395" width="55" height="90" as="geometry" />
        </mxCell>
        <mxCell id="Df3GkanbEGuxaOIv3N8X-59" value="" style="edgeStyle=none;rounded=0;sketch=1;hachureGap=4;jiggle=2;curveFitting=1;orthogonalLoop=1;jettySize=auto;html=1;fontFamily=Architects Daughter;fontSource=https%3A%2F%2Ffonts.googleapis.com%2Fcss%3Ffamily%3DArchitects%2BDaughter;fontSize=16;endArrow=none;endFill=0;" edge="1" parent="1">
          <mxGeometry relative="1" as="geometry">
            <mxPoint x="160" y="439.5" as="targetPoint" />
            <mxPoint x="240" y="439.5" as="sourcePoint" />
          </mxGeometry>
        </mxCell>
        <mxCell id="Df3GkanbEGuxaOIv3N8X-60" value="Прямое использование данных" style="text;html=1;strokeColor=none;fillColor=none;align=center;verticalAlign=middle;whiteSpace=wrap;rounded=0;fontSize=20;fontFamily=Architects Daughter;" vertex="1" parent="1">
          <mxGeometry x="330" y="385" width="350" height="110" as="geometry" />
        </mxCell>
        <mxCell id="Df3GkanbEGuxaOIv3N8X-61" value="" style="shape=requiredInterface;html=1;verticalLabelPosition=bottom;sketch=0;hachureGap=4;jiggle=2;curveFitting=1;fontFamily=Architects Daughter;fontSource=https%3A%2F%2Ffonts.googleapis.com%2Fcss%3Ffamily%3DArchitects%2BDaughter;fontSize=20;direction=west;" vertex="1" parent="1">
          <mxGeometry x="160" y="510" width="55" height="90" as="geometry" />
        </mxCell>
        <mxCell id="Df3GkanbEGuxaOIv3N8X-62" value="" style="edgeStyle=none;rounded=0;sketch=1;hachureGap=4;jiggle=2;curveFitting=1;orthogonalLoop=1;jettySize=auto;html=1;fontFamily=Architects Daughter;fontSource=https%3A%2F%2Ffonts.googleapis.com%2Fcss%3Ffamily%3DArchitects%2BDaughter;fontSize=16;endArrow=none;endFill=0;" edge="1" parent="1">
          <mxGeometry relative="1" as="geometry">
            <mxPoint x="80" y="554.5" as="targetPoint" />
            <mxPoint x="160" y="554.5" as="sourcePoint" />
          </mxGeometry>
        </mxCell>
        <mxCell id="Df3GkanbEGuxaOIv3N8X-63" value="" style="edgeStyle=none;rounded=0;sketch=1;hachureGap=4;jiggle=2;curveFitting=1;orthogonalLoop=1;jettySize=auto;html=1;fontFamily=Architects Daughter;fontSource=https%3A%2F%2Ffonts.googleapis.com%2Fcss%3Ffamily%3DArchitects%2BDaughter;fontSize=16;startArrow=none;startFill=0;endArrow=block;endFill=1;entryX=0;entryY=0.5;entryDx=0;entryDy=0;exitX=1;exitY=0.5;exitDx=0;exitDy=0;exitPerimeter=0;" edge="1" parent="1" source="Df3GkanbEGuxaOIv3N8X-61">
          <mxGeometry relative="1" as="geometry">
            <mxPoint x="282.5" y="555" as="targetPoint" />
            <mxPoint x="242.5" y="415" as="sourcePoint" />
          </mxGeometry>
        </mxCell>
        <mxCell id="Df3GkanbEGuxaOIv3N8X-64" value="Использование удаленного интерфейса" style="text;html=1;strokeColor=none;fillColor=none;align=center;verticalAlign=middle;whiteSpace=wrap;rounded=0;fontSize=20;fontFamily=Architects Daughter;" vertex="1" parent="1">
          <mxGeometry x="350" y="500" width="350" height="110" as="geometry" />
        </mxCell>
      </root>
    </mxGraphModel>
  </diagram>
</mxfile>
